<svg t="1653701320251" class="icon" viewBox="0 0 1024 1024" version="1.1" xmlns="http://www.w3.org/2000/svg" p-id="16295" width="128" height="128"><path d="M895.89 160l0.11 0.11v575.78l-0.11 0.11H128.11l-0.11-0.11V160.11l0.11-0.11h767.78m0.11-64H128a64.19 64.19 0 0 0-64 64v576a64.19 64.19 0 0 0 64 64h768a64.19 64.19 0 0 0 64-64V160a64.19 64.19 0 0 0-64-64zM832 864H192v64h640v-64z" p-id="16296"></path><path d="M576 736H448v128h128V736zM128 672h768v64H128zM530.88 192h-37.76a16 16 0 0 0-15.69 12.86l-9.76 48.79a16.07 16.07 0 0 1-10.31 11.93q-6.68 2.42-13.07 5.42a16.27 16.27 0 0 1-6.89 1.54 15.94 15.94 0 0 1-8.85-2.67l-41.4-27.6a16 16 0 0 0-20.19 2L340.26 271a16 16 0 0 0-2 20.19l27.6 41.4a16.07 16.07 0 0 1 1.14 15.7q-3 6.38-5.41 13.06a16.07 16.07 0 0 1-11.93 10.31l-48.79 9.76a16 16 0 0 0-12.87 15.7v37.77a16 16 0 0 0 12.86 15.69l48.79 9.76a16.07 16.07 0 0 1 11.93 10.31q2.42 6.67 5.41 13.06a16.07 16.07 0 0 1-1.14 15.74l-27.6 41.4a16 16 0 0 0 2 20.19l26.7 26.7a16 16 0 0 0 20.19 2l41.4-27.6a15.94 15.94 0 0 1 8.85-2.67 16.27 16.27 0 0 1 6.89 1.54q6.38 3 13.06 5.41a16.07 16.07 0 0 1 10.31 11.93l9.76 48.79A16 16 0 0 0 493.12 640h37.77a16 16 0 0 0 15.69-12.86l9.76-48.79a16.07 16.07 0 0 1 10.31-11.93q6.68-2.42 13.06-5.41a16.26 16.26 0 0 1 6.89-1.54 15.93 15.93 0 0 1 8.85 2.67l41.4 27.6a16 16 0 0 0 20.19-2l26.7-26.7a16 16 0 0 0 2-20.19l-27.6-41.4a16.08 16.08 0 0 1-1.14-15.74q3-6.38 5.41-13.06a16.07 16.07 0 0 1 11.93-10.31l48.79-9.76a16 16 0 0 0 12.87-15.7v-37.76a16 16 0 0 0-12.86-15.69l-48.79-9.76a16.07 16.07 0 0 1-11.93-10.31q-2.42-6.68-5.42-13.07a16.08 16.08 0 0 1 1.14-15.74l27.6-41.4a16 16 0 0 0-2-20.19L657 244.26a16 16 0 0 0-20.19-2l-41.4 27.6a15.94 15.94 0 0 1-8.85 2.67 16.26 16.26 0 0 1-6.89-1.54q-6.38-3-13.06-5.41a16.07 16.07 0 0 1-10.31-11.93l-9.76-48.79A16 16 0 0 0 530.88 192zM512 512a96 96 0 1 1 67.88-28.12A95.37 95.37 0 0 1 512 512z" p-id="16297"></path></svg>
