<?xml version="1.0" encoding="UTF-8" standalone="no"?>
<!DOCTYPE svg PUBLIC "-//W3C//DTD SVG 1.1//EN" "http://www.w3.org/Graphics/SVG/1.1/DTD/svg11.dtd">
<svg t="1653643571845" class="icon" viewBox="0 0 1024 1024" version="1.1" xmlns="http://www.w3.org/2000/svg" p-id="5933" xmlns:xlink="http://www.w3.org/1999/xlink" width="200" height="200"><script xmlns=""/><defs><style type="text/css"/></defs><path d="M383.10658438 962H177.23974854a115.37999209 115.37999209 0 0 1-115.1996792-115.1996792V640.87338096a115.36997432 115.36997432 0 0 1 115.1996792-115.19968008h205.86683584a115.37999209 115.37999209 0 0 1 115.19968007 115.19968008v205.87685273a115.37999209 115.37999209 0 0 1-115.19968007 115.24976631zM177.23974854 588.18204864a52.75143545 52.75143545 0 0 0-52.69133145 52.69133232v205.87685273a52.76145323 52.76145323 0 0 0 52.69133145 52.75143545h205.86683584a52.76145323 52.76145323 0 0 0 52.70134921-52.70134834V640.87338096a52.76145323 52.76145323 0 0 0-52.70134921-52.69133233zM839.60785391 962H633.67089629a115.36997432 115.36997432 0 0 1-115.1996792-115.1996792V640.87338096a115.36997432 115.36997432 0 0 1 115.1996792-115.19968008h205.93695762a115.36997432 115.36997432 0 0 1 115.19967919 115.19968008v205.87685273a115.36997432 115.36997432 0 0 1-115.19967919 115.24976631zM633.67089629 588.18204864a52.75143545 52.75143545 0 0 0-52.69133145 52.69133232v205.87685273a52.75143545 52.75143545 0 0 0 52.69133144 52.75143545h205.93695763a52.75143545 52.75143545 0 0 0 52.69133145-52.70134834V640.87338096a52.75143545 52.75143545 0 0 0-52.69133145-52.69133233zM736.61934043 514.46427119a101.91665567 101.91665567 0 0 1-72.54574629-30.05208984L540.43929512 360.76786455a102.68799258 102.68799258 0 0 1 0-145.08147481L664.09362881 92.10217695a102.56778457 102.56778457 0 0 1 145.07145703 0l123.60424746 123.58421279a102.76813125 102.76813125 0 0 1 0 145.07145703L809.16508584 484.41218135a101.92667256 101.92667256 0 0 1-72.54574542 30.05208984z m0-389.9158541a39.68879414 39.68879414 0 0 0-28.23894756 11.71029814l-123.71443857 123.6543337a40.06945371 40.06945371 0 0 0 0 56.63817334l123.64431679 123.63429902c15.10618448 15.13623604 41.48190176 15.13623604 56.62815557 0l123.62428212-123.62428213a40.06945371 40.06945371 0 0 0 0-56.65820713L764.93842666 136.26873213a39.80900215 39.80900215 0 0 0-28.31908623-11.72031504zM383.10658438 506.41031094H177.23974854a115.36997432 115.36997432 0 0 1-115.1996792-115.1996792V185.26365722a115.36997432 115.36997432 0 0 1 115.1996792-115.19968008h205.86683584a115.36997432 115.36997432 0 0 1 115.19968007 115.19968009V391.1705624a115.36997432 115.36997432 0 0 1-115.19968007 115.23974854zM177.23974854 132.60237734a52.75143545 52.75143545 0 0 0-52.69133145 52.69133144V391.1705624a52.75143545 52.75143545 0 0 0 52.69133145 52.69133145h205.86683584a52.76145323 52.76145323 0 0 0 52.70134921-52.69133145V185.26365722a52.75143545 52.75143545 0 0 0-52.70134921-52.69133144z" p-id="5934"/></svg>