<?xml version="1.0" encoding="UTF-8" standalone="no"?>
<!DOCTYPE svg PUBLIC "-//W3C//DTD SVG 1.1//EN" "http://www.w3.org/Graphics/SVG/1.1/DTD/svg11.dtd">
<svg t="1653703017212" class="icon" viewBox="0 0 1024 1024" version="1.1" xmlns="http://www.w3.org/2000/svg" p-id="20237" xmlns:xlink="http://www.w3.org/1999/xlink" width="128" height="128"><script xmlns=""/><defs><style type="text/css"/></defs><path d="M879.570052 604.289939l-57.671491 0 0.063445 315.00844c-0.005117 2.690272-0.167822 4.242627-0.319272 5.110391-1.485841-0.029676-2.90619-0.385786-3.527336-0.575098l-274.015817-162.930813c-2.408863-1.385557-15.283078-8.293897-32.145118-8.293897-15.418154 0-27.259854 5.619998-31.633465 8.037047l-277.131785 163.945933c-0.075725 0.016373-0.149403 0.031722-0.220011 0.047072-0.540306-0.596588-0.843204-1.451048-0.918929-1.787716l0.01842-793.842063c0-38.714743 30.705326-70.210062 68.447928-70.210062l482.860333 0c37.722136 0 68.412113 31.495318 68.412113 70.210062l0.020466 76.918857 57.667398 0 0-76.918857c0-71.136154-56.568367-129.008212-126.099976-129.008212l-482.860333 0c-69.536726 0-126.108163 57.873082-126.108163 129.008212l-0.027629 893.571439 7.036253-2.99931c47.444569-20.218484 340.53379-197.638289 356.509646-207.315696 0.623193-0.25685 2.369977-0.856507 4.02978-0.856507 1.068332 0 2.503007 0.286526 3.980661 0.793062 12.633738 7.54586 284.356326 169.773661 356.302939 207.212342l7.389294 3.845585L879.570052 604.289939z" p-id="20238"/><path d="M739.708654 591.286788 739.708654 448.048479 879.62224 448.048479 879.62224 389.269771 739.708654 389.269771 739.708654 246.029416 682.065815 246.029416 682.065815 389.269771 542.168602 389.269771 542.168602 448.048479 682.065815 448.048479 682.065815 591.286788Z" p-id="20239"/></svg>