<?xml version="1.0" encoding="utf-8"?>
<!-- Generator: Adobe Illustrator 24.0.1, SVG Export Plug-In . SVG Version: 6.00 Build 0)  -->
<svg version="1.1" id="图层_1" xmlns="http://www.w3.org/2000/svg" xmlns:xlink="http://www.w3.org/1999/xlink" x="0px" y="0px"
	 viewBox="0 0 52 45" style="enable-background:new 0 0 52 45;" xml:space="preserve">
<style type="text/css">
	.st0{filter:url(#filter-1);}
	.st1{fill-rule:evenodd;clip-rule:evenodd;fill:#F0F2F5;}
	.st2{filter:url(#Adobe_OpacityMaskFilter);}
	.st3{fill-rule:evenodd;clip-rule:evenodd;fill:#FFFFFF;}
	.st4{mask:url(#mask-3_4_);fill-rule:evenodd;clip-rule:evenodd;fill:#FFFFFF;}
	.st5{filter:url(#Adobe_OpacityMaskFilter_1_);}
	.st6{mask:url(#mask-3_3_);fill-rule:evenodd;clip-rule:evenodd;fill:#1D58A9;}
</style>
<filter  filterUnits="objectBoundingBox" height="122.5%" id="filter-1" width="118.8%" x="-9.4%" y="-6.2%">
	<feOffset  dx="0" dy="1" in="SourceAlpha" result="shadowOffsetOuter1"></feOffset>
	<feGaussianBlur  in="shadowOffsetOuter1" result="shadowBlurOuter1" stdDeviation="1"></feGaussianBlur>
	
		<feColorMatrix  in="shadowBlurOuter1" result="shadowMatrixOuter1" type="matrix" values="0 0 0 0 0   0 0 0 0 0   0 0 0 0 0  0 0 0 0.15 0">
		</feColorMatrix>
	<feMerge>
		<feMergeNode  in="shadowMatrixOuter1"></feMergeNode>
		<feMergeNode  in="SourceGraphic"></feMergeNode>
	</feMerge>
</filter>
<g id="配置面板">
	<g id="setting-copy-2" transform="translate(-1254.000000, -136.000000)">
		<g id="Group-8" transform="translate(1167.000000, 0.000000)">
			<g id="Group-5" transform="translate(89.000000, 137.000000)" class="st0">
				<g id="Rectangle-18_3_">
					<g>
						
							<image style="overflow:visible;" width="52" height="44" xlink:href="11F553BB99AA31C9.png"  transform="matrix(1 0 0 1 -2.016 -1)">
						</image>
					</g>
					<g>
						<path id="path-2_7_" class="st1" d="M4,0h40c2.2,0,4,1.8,4,4v32c0,2.2-1.8,4-4,4H4c-2.2,0-4-1.8-4-4V4C0,1.8,1.8,0,4,0z"/>
					</g>
				</g>
				<defs>
					<filter id="Adobe_OpacityMaskFilter" filterUnits="userSpaceOnUse" x="0" y="0" width="48" height="10">
						<feColorMatrix  type="matrix" values="1 0 0 0 0  0 1 0 0 0  0 0 1 0 0  0 0 0 1 0"/>
					</filter>
				</defs>
				<mask maskUnits="userSpaceOnUse" x="0" y="0" width="48" height="10" id="mask-3_4_">
					<g class="st2">
						<path id="path-2_6_" class="st3" d="M4,0h40c2.2,0,4,1.8,4,4v32c0,2.2-1.8,4-4,4H4c-2.2,0-4-1.8-4-4V4C0,1.8,1.8,0,4,0z"/>
					</g>
				</mask>
				<rect id="Rectangle-11_1_" class="st4" width="48" height="10"/>
				<defs>
					<filter id="Adobe_OpacityMaskFilter_1_" filterUnits="userSpaceOnUse" x="0" y="0" width="16" height="40">
						<feColorMatrix  type="matrix" values="1 0 0 0 0  0 1 0 0 0  0 0 1 0 0  0 0 0 1 0"/>
					</filter>
				</defs>
				<mask maskUnits="userSpaceOnUse" x="0" y="0" width="16" height="40" id="mask-3_3_">
					<g class="st5">
						<path id="path-2_5_" class="st3" d="M4,0h40c2.2,0,4,1.8,4,4v32c0,2.2-1.8,4-4,4H4c-2.2,0-4-1.8-4-4V4C0,1.8,1.8,0,4,0z"/>
					</g>
				</mask>
				<rect id="Rectangle-18_2_" class="st6" width="16" height="40"/>
			</g>
		</g>
	</g>
</g>
</svg>
