<?xml version="1.0" encoding="utf-8"?>
<!-- Generator: Adobe Illustrator 24.0.1, SVG Export Plug-In . SVG Version: 6.00 Build 0)  -->
<svg version="1.1" id="图层_1" xmlns="http://www.w3.org/2000/svg" xmlns:xlink="http://www.w3.org/1999/xlink" x="0px" y="0px"
	 viewBox="0 0 52 45" style="enable-background:new 0 0 52 45;" xml:space="preserve">
<style type="text/css">
	.st0{fill-rule:evenodd;clip-rule:evenodd;}
	.st1{fill-rule:evenodd;clip-rule:evenodd;fill:#F0F2F5;}
	.st2{filter:url(#Adobe_OpacityMaskFilter);}
	.st3{fill-rule:evenodd;clip-rule:evenodd;fill:#FFFFFF;}
	.st4{mask:url(#mask-3_2_);fill-rule:evenodd;clip-rule:evenodd;fill:#F0F2F5;}
	.st5{filter:url(#Adobe_OpacityMaskFilter_1_);}
	.st6{mask:url(#mask-3_1_);fill-rule:evenodd;clip-rule:evenodd;fill:#004977;}
</style>
<g id="配置面板">
	<g id="setting-copy-2" transform="translate(-1190.000000, -136.000000)">
		<g id="Group-8" transform="translate(1167.000000, 0.000000)">
			<g id="Group-5-Copy-5" transform="translate(25.000000, 137.000000)">
				<g id="Rectangle-18">
					<g>
						<path id="path-2_1_" class="st0" d="M4,0h40c2.2,0,4,1.8,4,4v32c0,2.2-1.8,4-4,4H4c-2.2,0-4-1.8-4-4V4C0,1.8,1.8,0,4,0z"/>
					</g>
					<g>
						<path id="path-2_2_" class="st1" d="M4,0h40c2.2,0,4,1.8,4,4v32c0,2.2-1.8,4-4,4H4c-2.2,0-4-1.8-4-4V4C0,1.8,1.8,0,4,0z"/>
					</g>
				</g>
				<defs>
					<filter id="Adobe_OpacityMaskFilter" filterUnits="userSpaceOnUse" x="0" y="0" width="16" height="40">
						<feColorMatrix  type="matrix" values="1 0 0 0 0  0 1 0 0 0  0 0 1 0 0  0 0 0 1 0"/>
					</filter>
				</defs>
				<mask maskUnits="userSpaceOnUse" x="0" y="0" width="16" height="40" id="mask-3_2_">
					<g class="st2">
						<path id="path-2_4_" class="st3" d="M4,0h40c2.2,0,4,1.8,4,4v32c0,2.2-1.8,4-4,4H4c-2.2,0-4-1.8-4-4V4C0,1.8,1.8,0,4,0z"/>
					</g>
				</mask>
				<rect id="Rectangle-18_1_" class="st4" width="16" height="40"/>
				<defs>
					<filter id="Adobe_OpacityMaskFilter_1_" filterUnits="userSpaceOnUse" x="0" y="0" width="48" height="12">
						<feColorMatrix  type="matrix" values="1 0 0 0 0  0 1 0 0 0  0 0 1 0 0  0 0 0 1 0"/>
					</filter>
				</defs>
				<mask maskUnits="userSpaceOnUse" x="0" y="0" width="48" height="12" id="mask-3_1_">
					<g class="st5">
						<path id="path-2_3_" class="st3" d="M4,0h40c2.2,0,4,1.8,4,4v32c0,2.2-1.8,4-4,4H4c-2.2,0-4-1.8-4-4V4C0,1.8,1.8,0,4,0z"/>
					</g>
				</mask>
				<rect id="Rectangle-11" class="st6" width="48" height="12"/>
			</g>
		</g>
	</g>
</g>
</svg>
