<?xml version="1.0" encoding="utf-8"?>
<!-- Generator: Adobe Illustrator 24.0.1, SVG Export Plug-In . SVG Version: 6.00 Build 0)  -->
<svg version="1.1" id="图层_1" xmlns="http://www.w3.org/2000/svg" xmlns:xlink="http://www.w3.org/1999/xlink" x="0px" y="0px"
	 viewBox="0 0 120 120" style="enable-background:new 0 0 120 120;" xml:space="preserve">
<style type="text/css">
	.st0{display:none;}
	.st1{display:inline;fill:#29CE93;}
	.st2{display:inline;}
	.st3{fill:#FFFFFF;}
	.st4{fill:none;stroke:#FFFFFF;stroke-width:4;stroke-miterlimit:10;}
	.st5{display:inline;fill:#878787;}
	.st6{fill:#E26120;}
	.st7{display:inline;fill:#E26120;}
</style>
<g class="st0">
	<path class="st1" d="M100.87,50.64c0,17.46-10.91,32.34-26.22,38.02c-0.38,0.14-0.7,0.4-0.9,0.76l-11.38,19.86
		c-0.67,1.16-2.33,1.16-2.99,0L48.01,89.43c-0.2-0.35-0.52-0.62-0.9-0.76c-16.19-6.01-27.48-22.32-26.12-41.08
		c1.44-19.92,17.43-36.01,37.11-37.35C81.45,8.65,100.87,27.35,100.87,50.64z"/>
	<g class="st2">
		<path class="st3" d="M77.39,54.53h-32.6c-2.14,0-3.72-2.02-3.23-4.13l5.78-24.66c0.35-1.51,1.69-2.58,3.23-2.58h21.05
			c1.54,0,2.87,1.07,3.23,2.58l5.78,24.66C81.11,52.5,79.53,54.53,77.39,54.53z"/>
		<ellipse class="st4" cx="60.58" cy="48.45" rx="12" ry="12.15"/>
		<path class="st3" d="M61.08,84.21L61.08,84.21c-1.1,0-2-0.9-2-2V68.49c0-1.1,0.9-2,2-2h0c1.1,0,2,0.9,2,2v13.72
			C63.08,83.31,62.18,84.21,61.08,84.21z"/>
		<path class="st3" d="M50.33,76.15L50.33,76.15c-1-0.47-1.43-1.68-0.97-2.69l2.54-5.5c0.46-1.01,1.66-1.45,2.66-0.98l0,0
			c1,0.47,1.43,1.68,0.97,2.69l-2.54,5.5C52.52,76.18,51.32,76.62,50.33,76.15z"/>
		<path class="st3" d="M71.86,76.15L71.86,76.15c1-0.47,1.43-1.68,0.97-2.69l-2.54-5.5c-0.46-1.01-1.66-1.45-2.66-0.98l0,0
			c-1,0.47-1.43,1.68-0.97,2.69l2.54,5.5C69.67,76.18,70.86,76.62,71.86,76.15z"/>
	</g>
</g>
<g class="st0">
	<path class="st1" d="M100.86,50.76c0,17.46-10.91,32.34-26.22,38.02c-0.38,0.14-0.7,0.4-0.9,0.76l-11.38,19.86
		c-0.67,1.16-2.33,1.16-2.99,0L47.99,89.55c-0.2-0.35-0.52-0.62-0.9-0.76c-16.19-6.01-27.48-22.32-26.12-41.08
		c1.44-19.92,17.43-36.01,37.11-37.35C81.44,8.76,100.86,27.47,100.86,50.76z"/>
	<g class="st2">
		<path class="st3" d="M60.93,81.23L60.93,81.23c-1.1,0-2-0.9-2-2V65.51c0-1.1,0.9-2,2-2h0c1.1,0,2,0.9,2,2v13.72
			C62.93,80.33,62.03,81.23,60.93,81.23z"/>
		<path class="st3" d="M50.17,73.17L50.17,73.17c-1-0.47-1.43-1.68-0.97-2.69l2.54-5.5c0.46-1.01,1.66-1.45,2.66-0.98h0
			c1,0.47,1.43,1.68,0.97,2.69l-2.54,5.5C52.37,73.19,51.17,73.64,50.17,73.17z"/>
		<path class="st3" d="M71.71,73.17L71.71,73.17c1-0.47,1.43-1.68,0.97-2.69l-2.54-5.5c-0.46-1.01-1.66-1.45-2.66-0.98l0,0
			c-1,0.47-1.43,1.68-0.97,2.69l2.54,5.5C69.52,73.19,70.71,73.64,71.71,73.17z"/>
		<path class="st3" d="M88.91,55.09h-56.1c-0.56,0-1.02-0.46-1.02-1.02v-6.65c0-0.56,0.46-1.02,1.02-1.02h56.1
			c0.56,0,1.02,0.46,1.02,1.02v6.65C89.93,54.63,89.47,55.09,88.91,55.09z"/>
		<ellipse class="st3" cx="39.99" cy="54.11" rx="4" ry="4.05"/>
		<ellipse class="st3" cx="53.7" cy="54.11" rx="4" ry="4.05"/>
		<ellipse class="st3" cx="67.41" cy="54.11" rx="4" ry="4.05"/>
		<ellipse class="st3" cx="81.12" cy="54.11" rx="4" ry="4.05"/>
		<path class="st3" d="M45.73,48h-2.87c-0.33,0-0.61-0.27-0.61-0.61V24.48c0-0.33,0.27-0.61,0.61-0.61h2.87
			c0.33,0,0.61,0.27,0.61,0.61V47.4C46.34,47.73,46.06,48,45.73,48z"/>
		<path class="st3" d="M77.71,48h-2.87c-0.33,0-0.61-0.27-0.61-0.61V24.48c0-0.33,0.27-0.61,0.61-0.61h2.87
			c0.33,0,0.61,0.27,0.61,0.61V47.4C78.31,47.73,78.04,48,77.71,48z"/>
	</g>
</g>
<g class="st0">
	<path class="st5" d="M100.86,50.76c0,17.46-10.91,32.34-26.22,38.02c-0.38,0.14-0.7,0.4-0.9,0.76l-11.38,19.86
		c-0.67,1.16-2.33,1.16-2.99,0L47.99,89.55c-0.2-0.35-0.52-0.62-0.9-0.76c-16.19-6.01-27.48-22.32-26.12-41.08
		c1.44-19.92,17.43-36.01,37.11-37.35C81.44,8.76,100.86,27.47,100.86,50.76z"/>
	<g class="st2">
		<path class="st3" d="M77.37,54.65h-32.6c-2.14,0-3.72-2.02-3.23-4.13l5.78-24.66c0.35-1.51,1.69-2.58,3.23-2.58h21.05
			c1.54,0,2.87,1.07,3.23,2.58l5.78,24.66C81.09,52.62,79.51,54.65,77.37,54.65z"/>
		<ellipse class="st4" cx="60.57" cy="48.57" rx="12" ry="12.15"/>
		<path class="st3" d="M61.07,84.33L61.07,84.33c-1.1,0-2-0.9-2-2V68.61c0-1.1,0.9-2,2-2h0c1.1,0,2,0.9,2,2v13.72
			C63.07,83.43,62.17,84.33,61.07,84.33z"/>
		<path class="st3" d="M50.31,76.26L50.31,76.26c-1-0.47-1.43-1.68-0.97-2.69l2.54-5.5c0.46-1.01,1.66-1.45,2.66-0.98h0
			c1,0.47,1.43,1.68,0.97,2.69l-2.54,5.5C52.5,76.29,51.31,76.73,50.31,76.26z"/>
		<path class="st3" d="M71.85,76.26L71.85,76.26c1-0.47,1.43-1.68,0.97-2.69l-2.54-5.5c-0.46-1.01-1.66-1.45-2.66-0.98l0,0
			c-1,0.47-1.43,1.68-0.97,2.69l2.54,5.5C69.65,76.29,70.85,76.73,71.85,76.26z"/>
	</g>
</g>
<g class="st0">
	<path class="st5" d="M100.86,50.76c0,17.46-10.91,32.34-26.22,38.02c-0.38,0.14-0.7,0.4-0.9,0.76l-11.38,19.86
		c-0.67,1.16-2.33,1.16-2.99,0L47.99,89.55c-0.2-0.35-0.52-0.62-0.9-0.76c-16.19-6.01-27.48-22.32-26.12-41.08
		c1.44-19.92,17.43-36.01,37.11-37.35C81.44,8.76,100.86,27.47,100.86,50.76z"/>
	<g class="st2">
		<path class="st3" d="M60.93,81.57L60.93,81.57c-1.1,0-2-0.9-2-2V65.85c0-1.1,0.9-2,2-2h0c1.1,0,2,0.9,2,2v13.72
			C62.93,80.67,62.03,81.57,60.93,81.57z"/>
		<path class="st3" d="M50.17,73.51L50.17,73.51c-1-0.47-1.43-1.68-0.97-2.69l2.54-5.5c0.46-1.01,1.66-1.45,2.66-0.98h0
			c1,0.47,1.43,1.68,0.97,2.69l-2.54,5.5C52.37,73.54,51.17,73.98,50.17,73.51z"/>
		<path class="st3" d="M71.71,73.51L71.71,73.51c1-0.47,1.43-1.68,0.97-2.69l-2.54-5.5c-0.46-1.01-1.66-1.45-2.66-0.98l0,0
			c-1,0.47-1.43,1.68-0.97,2.69l2.54,5.5C69.52,73.54,70.71,73.98,71.71,73.51z"/>
		<path class="st3" d="M88.91,55.43h-56.1c-0.56,0-1.02-0.46-1.02-1.02v-6.65c0-0.56,0.46-1.02,1.02-1.02h56.1
			c0.56,0,1.02,0.46,1.02,1.02v6.65C89.93,54.97,89.47,55.43,88.91,55.43z"/>
		<ellipse class="st3" cx="39.99" cy="54.45" rx="4" ry="4.05"/>
		<ellipse class="st3" cx="53.7" cy="54.45" rx="4" ry="4.05"/>
		<ellipse class="st3" cx="67.41" cy="54.45" rx="4" ry="4.05"/>
		<ellipse class="st3" cx="81.12" cy="54.45" rx="4" ry="4.05"/>
		<path class="st3" d="M45.73,48.35h-2.87c-0.33,0-0.61-0.27-0.61-0.61V24.82c0-0.33,0.27-0.61,0.61-0.61h2.87
			c0.33,0,0.61,0.27,0.61,0.61v22.92C46.34,48.07,46.06,48.35,45.73,48.35z"/>
		<path class="st3" d="M77.71,48.35h-2.87c-0.33,0-0.61-0.27-0.61-0.61V24.82c0-0.33,0.27-0.61,0.61-0.61h2.87
			c0.33,0,0.61,0.27,0.61,0.61v22.92C78.31,48.07,78.04,48.35,77.71,48.35z"/>
	</g>
</g>
<path class="st6" d="M100.86,50.76c0,17.46-10.91,32.34-26.22,38.02c-0.38,0.14-0.7,0.4-0.9,0.76l-11.38,19.86
	c-0.67,1.16-2.33,1.16-2.99,0L47.99,89.55c-0.2-0.35-0.52-0.62-0.9-0.76c-16.19-6.01-27.48-22.32-26.12-41.08
	c1.44-19.92,17.43-36.01,37.11-37.35C81.44,8.76,100.86,27.47,100.86,50.76z"/>
<path class="st3" d="M77.16,54.65h-32.6c-2.14,0-3.72-2.02-3.23-4.13l5.78-24.66c0.35-1.51,1.69-2.58,3.23-2.58h21.05
	c1.54,0,2.87,1.07,3.23,2.58l5.78,24.66C80.88,52.62,79.3,54.65,77.16,54.65z"/>
<path class="st3" d="M60.36,62.72c-7.72,0-14-6.35-14-14.15s6.28-14.15,14-14.15s14,6.35,14,14.15S68.08,62.72,60.36,62.72z
	 M60.36,38.42c-5.51,0-10,4.55-10,10.15s4.49,10.15,10,10.15c5.51,0,10-4.55,10-10.15S65.87,38.42,60.36,38.42z"/>
<path class="st3" d="M60.86,84.33L60.86,84.33c-1.1,0-2-0.9-2-2V68.61c0-1.1,0.9-2,2-2h0c1.1,0,2,0.9,2,2v13.72
	C62.86,83.43,61.96,84.33,60.86,84.33z"/>
<path class="st3" d="M50.1,76.26L50.1,76.26c-1-0.47-1.43-1.68-0.97-2.69l2.54-5.5c0.46-1.01,1.66-1.45,2.66-0.98h0
	c1,0.47,1.43,1.68,0.97,2.69l-2.54,5.5C52.29,76.29,51.1,76.73,50.1,76.26z"/>
<path class="st3" d="M71.64,76.26L71.64,76.26c1-0.47,1.43-1.68,0.97-2.69l-2.54-5.5c-0.46-1.01-1.66-1.45-2.66-0.98h0
	c-1,0.47-1.43,1.68-0.97,2.69l2.54,5.5C69.44,76.29,70.64,76.73,71.64,76.26z"/>
<g class="st0">
	<path class="st7" d="M100.86,50.76c0,17.46-10.91,32.34-26.22,38.02c-0.38,0.14-0.7,0.4-0.9,0.76l-11.38,19.86
		c-0.67,1.16-2.33,1.16-2.99,0L47.99,89.55c-0.2-0.35-0.52-0.62-0.9-0.76c-16.19-6.01-27.48-22.32-26.12-41.08
		c1.44-19.92,17.43-36.01,37.11-37.35C81.44,8.76,100.86,27.47,100.86,50.76z"/>
	<g class="st2">
		<path class="st3" d="M60.93,81.57L60.93,81.57c-1.1,0-2-0.9-2-2V65.85c0-1.1,0.9-2,2-2h0c1.1,0,2,0.9,2,2v13.72
			C62.93,80.67,62.03,81.57,60.93,81.57z"/>
		<path class="st3" d="M50.17,73.51L50.17,73.51c-1-0.47-1.43-1.68-0.97-2.69l2.54-5.5c0.46-1.01,1.66-1.45,2.66-0.98h0
			c1,0.47,1.43,1.68,0.97,2.69l-2.54,5.5C52.37,73.54,51.17,73.98,50.17,73.51z"/>
		<path class="st3" d="M71.71,73.51L71.71,73.51c1-0.47,1.43-1.68,0.97-2.69l-2.54-5.5c-0.46-1.01-1.66-1.45-2.66-0.98l0,0
			c-1,0.47-1.43,1.68-0.97,2.69l2.54,5.5C69.52,73.54,70.71,73.98,71.71,73.51z"/>
		<path class="st3" d="M88.91,55.43h-56.1c-0.56,0-1.02-0.46-1.02-1.02v-6.65c0-0.56,0.46-1.02,1.02-1.02h56.1
			c0.56,0,1.02,0.46,1.02,1.02v6.65C89.93,54.97,89.47,55.43,88.91,55.43z"/>
		<ellipse class="st3" cx="39.99" cy="54.45" rx="4" ry="4.05"/>
		<ellipse class="st3" cx="53.7" cy="54.45" rx="4" ry="4.05"/>
		<ellipse class="st3" cx="67.41" cy="54.45" rx="4" ry="4.05"/>
		<ellipse class="st3" cx="81.12" cy="54.45" rx="4" ry="4.05"/>
		<path class="st3" d="M45.73,48.35h-2.87c-0.33,0-0.61-0.27-0.61-0.61V24.82c0-0.33,0.27-0.61,0.61-0.61h2.87
			c0.33,0,0.61,0.27,0.61,0.61v22.92C46.34,48.07,46.06,48.35,45.73,48.35z"/>
		<path class="st3" d="M77.71,48.35h-2.87c-0.33,0-0.61-0.27-0.61-0.61V24.82c0-0.33,0.27-0.61,0.61-0.61h2.87
			c0.33,0,0.61,0.27,0.61,0.61v22.92C78.31,48.07,78.04,48.35,77.71,48.35z"/>
	</g>
</g>
</svg>
